<svg width="19" height="21" viewBox="0 0 19 21" fill="none" xmlns="http://www.w3.org/2000/svg">
<path d="M10.5734 0.971898C10.2833 0.697622 9.89924 0.5448 9.5 0.5448C9.10076 0.5448 8.71667 0.697622 8.42656 0.971898L0.857814 8.12502C0.626066 8.34432 0.441534 8.60863 0.315526 8.90176C0.189517 9.19488 0.124685 9.51065 0.125001 9.82971V18.5328C0.125415 19.1542 0.372528 19.7499 0.812022 20.1891C1.25152 20.6283 1.84742 20.875 2.46875 20.875H4.8125C5.4341 20.875 6.03024 20.6281 6.46978 20.1886C6.90932 19.749 7.15625 19.1529 7.15625 18.5313V14.625C7.15625 14.4178 7.23856 14.2191 7.38507 14.0726C7.53159 13.9261 7.7303 13.8438 7.9375 13.8438H11.0625C11.2697 13.8438 11.4684 13.9261 11.6149 14.0726C11.7614 14.2191 11.8438 14.4178 11.8438 14.625V18.5313C11.8438 19.1529 12.0907 19.749 12.5302 20.1886C12.9698 20.6281 13.5659 20.875 14.1875 20.875H16.5312C17.1529 20.875 17.749 20.6281 18.1885 20.1886C18.6281 19.749 18.875 19.1529 18.875 18.5313V9.82815C18.8749 9.50924 18.8097 9.1937 18.6834 8.90085C18.5572 8.60801 18.3725 8.34401 18.1406 8.12502L10.5734 0.968773V0.971898Z" fill="white"/>
</svg>
