<svg width="22" height="22" viewBox="0 0 22 22" fill="none" xmlns="http://www.w3.org/2000/svg">
<path d="M10.5 15.1507C11.2161 15.1507 11.9028 15.45 12.4092 15.9828C12.9155 16.5155 13.2 17.2381 13.2 17.9915V19.8878L13.1904 20.0242C12.8184 22.7097 10.5264 24 6.6804 24C2.8488 24 0.5196 22.7248 0.0167999 20.0709L0 19.8853V17.9915C0 17.2381 0.284463 16.5155 0.790812 15.9828C1.29716 15.45 1.98392 15.1507 2.7 15.1507H10.5ZM6.6 5.05024C7.15155 5.05024 7.6977 5.16454 8.20727 5.38661C8.71684 5.60869 9.17984 5.93418 9.56985 6.34452C9.95986 6.75486 10.2692 7.242 10.4803 7.77814C10.6914 8.31427 10.8 8.88889 10.8 9.4692C10.8 10.0495 10.6914 10.6241 10.4803 11.1603C10.2692 11.6964 9.95986 12.1835 9.56985 12.5939C9.17984 13.0042 8.71684 13.3297 8.20727 13.5518C7.6977 13.7739 7.15155 13.8882 6.6 13.8882C5.48609 13.8882 4.4178 13.4226 3.63015 12.5939C2.8425 11.7652 2.4 10.6412 2.4 9.4692C2.4 8.29722 2.8425 7.17324 3.63015 6.34452C4.4178 5.51581 5.48609 5.05024 6.6 5.05024ZM21.3 0C22.0161 0 22.7028 0.299293 23.2092 0.832039C23.7155 1.36478 24 2.08734 24 2.84076V7.25972C24 7.63277 23.9302 8.00217 23.7945 8.34683C23.6588 8.69149 23.4599 9.00465 23.2092 9.26844C22.9585 9.53223 22.6608 9.74148 22.3332 9.88424C22.0057 10.027 21.6546 10.1005 21.3 10.1005H19.4364L16.3872 12.8869C16.2134 13.0458 15.9999 13.1488 15.7721 13.1835C15.5442 13.2183 15.3117 13.1833 15.1022 13.0828C14.8927 12.9823 14.7151 12.8206 14.5906 12.6168C14.4661 12.4131 14.3999 12.1759 14.4 11.9337V10.0828C13.74 10.0052 13.1303 9.67431 12.6876 9.1535C12.2448 8.6327 12 7.95847 12 7.25972V2.84076C12 2.08734 12.2845 1.36478 12.7908 0.832039C13.2972 0.299293 13.9839 0 14.7 0H21.3Z" fill="#121212"/>
</svg>
