<svg width="18" height="21" viewBox="0 0 18 21" fill="none" xmlns="http://www.w3.org/2000/svg">
<path d="M10.0305 1.12925C9.752 0.865948 9.38327 0.719238 9 0.719238C8.61673 0.719238 8.248 0.865948 7.9695 1.12925L0.703501 7.99625C0.481023 8.20678 0.303873 8.46052 0.182905 8.74192C0.0619366 9.02332 -0.000302358 9.32645 1.10438e-06 9.63275V17.9878C0.000398756 18.5842 0.237627 19.1561 0.659541 19.5778C1.08145 19.9994 1.65352 20.2363 2.25 20.2363H4.5C5.09674 20.2363 5.66903 19.9992 6.09099 19.5772C6.51295 19.1553 6.75 18.583 6.75 17.9863V14.2363C6.75 14.0373 6.82902 13.8466 6.96967 13.7059C7.11032 13.5653 7.30109 13.4863 7.5 13.4863H10.5C10.6989 13.4863 10.8897 13.5653 11.0303 13.7059C11.171 13.8466 11.25 14.0373 11.25 14.2363V17.9863C11.25 18.583 11.4871 19.1553 11.909 19.5772C12.331 19.9992 12.9033 20.2363 13.5 20.2363H15.75C16.3467 20.2363 16.919 19.9992 17.341 19.5772C17.7629 19.1553 18 18.583 18 17.9863V9.63125C17.9999 9.3251 17.9373 9.02218 17.8161 8.74105C17.6949 8.45991 17.5176 8.20648 17.295 7.99625L10.0305 1.12625V1.12925Z" fill="white"/>
</svg>
