<svg width="28" height="21" viewBox="0 0 28 21" fill="none" xmlns="http://www.w3.org/2000/svg">
<mask id="mask0_2173_93858" style="mask-type:alpha" maskUnits="userSpaceOnUse" x="0" y="0" width="28" height="21">
<path fill-rule="evenodd" clip-rule="evenodd" d="M10.5063 9.68068C9.92415 9.68068 9.46382 10.0373 9.46382 10.4883C9.46382 10.9288 9.92415 11.2959 10.5063 11.2959H18.6298V16.3093C18.6298 18.8789 15.9355 20.9766 12.6049 20.9766H6.01135C2.69428 20.9766 0 18.8894 0 16.3198V4.66728C0 2.08717 2.70782 0 6.02489 0H12.632C15.9355 0 18.6298 2.08717 18.6298 4.6568V9.68068H10.5063ZM23.4604 6.85954L27.3461 9.91163C27.5457 10.069 27.6521 10.2682 27.6521 10.4885C27.6521 10.6982 27.5457 10.908 27.3461 11.0549L23.4604 14.1069C23.2608 14.2643 22.9947 14.3482 22.7419 14.3482C22.4757 14.3482 22.2096 14.2643 22.01 14.1069C21.6108 13.7923 21.6108 13.2784 22.01 12.9637L24.1391 11.2961H18.63V9.68089H24.1391L22.01 8.01325C21.6108 7.6986 21.6108 7.18468 22.01 6.87003C22.4092 6.54489 23.0612 6.54489 23.4604 6.85954Z" fill="#130F26"/>
</mask>
<g mask="url(#mask0_2173_93858)">
<rect x="-13.8262" y="-11.3623" width="46.087" height="34.9609" fill="white"/>
</g>
</svg>
