<svg width="20" height="20" viewBox="0 0 20 20" fill="none" xmlns="http://www.w3.org/2000/svg">
<path d="M8.75 12.2012C9.34674 12.2012 9.91903 12.4382 10.341 12.8602C10.7629 13.2821 11 13.8544 11 14.4512V15.9532L10.992 16.0612C10.682 18.1882 8.772 19.2102 5.567 19.2102C2.374 19.2102 0.433 18.2002 0.0139999 16.0982L0 15.9512V14.4512C0 13.8544 0.237053 13.2821 0.65901 12.8602C1.08097 12.4382 1.65326 12.2012 2.25 12.2012H8.75ZM5.5 4.20117C5.95963 4.20117 6.41475 4.2917 6.83939 4.46759C7.26403 4.64349 7.64987 4.90129 7.97487 5.2263C8.29988 5.5513 8.55769 5.93714 8.73358 6.36178C8.90947 6.78642 9 7.24155 9 7.70117C9 8.1608 8.90947 8.61592 8.73358 9.04056C8.55769 9.4652 8.29988 9.85104 7.97487 10.176C7.64987 10.5011 7.26403 10.7589 6.83939 10.9348C6.41475 11.1106 5.95963 11.2012 5.5 11.2012C4.57174 11.2012 3.6815 10.8324 3.02513 10.176C2.36875 9.51967 2 8.62943 2 7.70117C2 6.77291 2.36875 5.88268 3.02513 5.2263C3.6815 4.56992 4.57174 4.20117 5.5 4.20117ZM17.75 0.201172C18.3467 0.201172 18.919 0.438225 19.341 0.860182C19.7629 1.28214 20 1.85443 20 2.45117V5.95117C20 6.24665 19.9418 6.53923 19.8287 6.81221C19.7157 7.08519 19.5499 7.33323 19.341 7.54216C19.1321 7.75109 18.884 7.91683 18.611 8.0299C18.3381 8.14297 18.0455 8.20117 17.75 8.20117H16.197L13.656 10.4082C13.5112 10.534 13.3332 10.6156 13.1434 10.6431C12.9535 10.6706 12.7597 10.6429 12.5852 10.5633C12.4106 10.4837 12.2626 10.3556 12.1589 10.1942C12.0551 10.0328 12 9.84502 12 9.65317V8.18717C11.45 8.12568 10.9419 7.86363 10.573 7.45113C10.204 7.03863 10 6.50461 10 5.95117V2.45117C10 1.85443 10.2371 1.28214 10.659 0.860182C11.081 0.438225 11.6533 0.201172 12.25 0.201172H17.75Z" fill="#FCFCFC"/>
</svg>
