<svg width="136" height="31" viewBox="0 0 136 31" fill="none" xmlns="http://www.w3.org/2000/svg">
<path fill-rule="evenodd" clip-rule="evenodd" d="M6.72296 5.36433C6.69345 5.41368 6.52449 6.01853 6.34753 6.70858C5.91128 8.40938 5.80744 10.6517 6.09851 12.0881C6.54397 14.2866 7.29723 15.7118 9.57026 18.6575C10.407 19.7418 11.1417 20.7599 11.2027 20.9198C11.2767 21.1134 11.2664 21.325 11.172 21.5528C10.8926 22.2273 10.7789 22.2421 5.88021 22.2421C1.71925 22.2421 1.39687 22.2569 1.33629 22.4512C1.30032 22.5663 1.11356 23.2518 0.921185 23.9747C0.728809 24.6976 0.427817 25.8182 0.252288 26.4648C0.076879 27.1116 -0.0326914 27.6747 0.00877115 27.7161C0.138416 27.8458 9.76574 27.7326 10.3471 27.5946C10.6428 27.5244 11.2794 27.2874 11.7618 27.0679C14.9888 25.5995 17.1727 22.4285 17.0151 19.4403C16.9428 18.07 16.6255 17.4732 14.544 14.7932C13.5623 13.5292 12.595 12.1721 12.3945 11.7774C11.5987 10.2115 11.4578 8.56292 11.9512 6.58909C12.1072 5.96476 12.2102 5.41368 12.1801 5.36433C12.1499 5.31498 10.9218 5.27471 9.45089 5.27471C7.97998 5.27471 6.75236 5.31498 6.72296 5.36433ZM19.1871 5.78254C19.1151 6.06178 18.8477 7.07003 18.5928 8.02295C18.3381 8.97588 17.9903 10.2784 17.8201 10.9173C17.153 13.4219 17.194 14.9582 17.9675 16.4325C19.1842 18.752 21.441 19.9165 24.265 19.6823C26.578 19.4904 29.244 18.0943 31.1135 16.0957C32.7286 14.3692 33.2271 13.291 34.4141 8.95652C34.9125 7.13694 35.3202 5.56411 35.3202 5.46147C35.3202 5.29753 34.9846 5.27471 32.5766 5.27471H29.8329L29.7133 5.7228C29.6476 5.9693 29.3996 6.89677 29.1622 7.78398C28.9248 8.67118 28.5804 9.96393 28.3969 10.6567C28.0033 12.1428 27.8125 12.5434 27.2135 13.1424C25.9552 14.4008 24.1033 14.4534 23.3707 13.2517C22.9424 12.5492 23.051 11.8619 24.2649 7.59411C24.562 6.5493 24.8052 5.60008 24.8052 5.48466C24.8052 5.29049 24.599 5.27471 22.0616 5.27471H19.3179L19.1871 5.78254ZM36.577 5.42407C36.5494 5.50628 36.34 6.29933 36.1117 7.18653C35.5589 9.33482 34.4791 13.3941 33.8708 15.6105C33.6003 16.5963 33.2301 17.9674 33.0482 18.6575C32.8664 19.3475 32.519 20.638 32.2762 21.5252C32.0334 22.4124 31.6853 23.7029 31.5025 24.3929C31.3198 25.083 31.0469 26.0916 30.8962 26.6343C30.7455 27.1769 30.6619 27.6608 30.7106 27.7097C30.8157 27.8152 35.4871 27.9021 35.8713 27.8056C36.1823 27.7276 36.2615 27.5077 37.0365 24.5721C37.3314 23.4549 37.9242 21.2235 38.3539 19.6134C38.7836 18.0033 39.291 16.0944 39.4817 15.3715C40.4539 11.6854 40.6266 11.0979 40.7832 10.9412C40.9112 10.8133 41.2983 10.7719 42.3486 10.7741C44.0296 10.7775 44.6129 10.8967 44.9689 11.3093C45.4013 11.8106 45.4055 11.7847 44.1003 16.6261C43.8611 17.5133 43.4852 18.9114 43.265 19.7329C43.0449 20.5543 42.6269 22.1137 42.3363 23.198C42.0457 24.2824 41.6576 25.7218 41.4739 26.3966C41.2902 27.0715 41.1791 27.663 41.227 27.711C41.3687 27.8532 46.2734 27.8877 46.5337 27.7484C46.6602 27.6808 46.7989 27.4761 46.842 27.2936C46.9733 26.7374 47.9923 22.8445 48.2894 21.7642C50.0597 15.3246 50.851 12.2464 50.9619 11.3686C51.3171 8.55659 49.7381 6.14878 47.0857 5.45789C46.1432 5.21246 36.6582 5.18187 36.577 5.42407ZM63.1013 5.38524C59.9441 5.8988 57.1339 7.43829 54.4945 10.1001C52.5193 12.0923 51.3725 14.0883 50.6081 16.8651C50.205 18.3289 50.2005 20.7375 50.5984 21.9434C51.0232 23.2309 51.6493 24.3197 52.4825 25.2196C53.3489 26.1555 54.0328 26.6295 55.2202 27.1174C56.3804 27.5941 57.3386 27.7553 58.9907 27.7519C60.6205 27.7484 61.4981 27.6176 62.8889 27.1708L63.8713 26.8551L64.3342 27.3566L64.7972 27.8581H67.8027C70.3134 27.8581 70.8083 27.8302 70.8083 27.6891C70.8083 27.5962 69.5826 25.6202 68.0845 23.2979L65.3606 19.0757L62.2295 19.0438C60.5075 19.0263 59.0984 19.0458 59.0984 19.0871C59.0984 19.1286 59.5017 19.7989 59.9946 20.5769C60.4875 21.355 60.8908 22.0557 60.8908 22.1341C60.8908 22.2378 60.6471 22.2581 59.9958 22.2089C56.0757 21.9124 54.8117 17.5078 57.6048 13.8779C58.6007 12.5838 60.2982 11.4266 61.7444 11.0562C62.835 10.7767 64.8034 10.8725 65.579 11.2427C67.7749 12.2909 68.4563 15.1076 67.1657 17.8006L66.7597 18.6478L67.6267 19.9969C69.2438 22.5129 69.3716 22.7042 69.4808 22.7717C69.634 22.8663 70.6685 21.7047 71.3435 20.68C72.7816 18.4971 73.6588 15.7646 73.6724 13.4248C73.6771 12.6119 73.3725 11.1403 73.0196 10.272C72.1455 8.12082 70.2607 6.39755 68.0004 5.68276C67.2171 5.43518 66.7423 5.37221 65.3716 5.33422C64.4515 5.30877 63.4299 5.33171 63.1013 5.38524ZM77.2588 5.78254C77.1871 6.06178 77.0477 6.5775 76.9491 6.92844C76.8505 7.2795 76.3992 8.97325 75.9464 10.6923C75.4934 12.4115 74.9324 14.5172 74.6997 15.3715C73.2384 20.7357 73.0496 21.6152 73.0985 22.8305C73.1368 23.7859 73.2009 24.0973 73.4732 24.6539C74.178 26.0947 75.1802 27.0099 76.5805 27.4917C77.1892 27.7011 77.7368 27.7312 82.1868 27.8C86.1905 27.862 87.1573 27.8465 87.3241 27.7178C87.5123 27.5728 87.7933 26.5929 89.512 20.0913C90.1518 17.6717 93.1556 6.49135 93.268 6.11197C93.5325 5.21939 93.7054 5.27471 90.6515 5.27471C88.1446 5.27471 87.9062 5.29252 87.8508 5.48382C87.8175 5.59877 87.4881 6.82209 87.1189 8.20219C86.7498 9.58228 86.2674 11.3836 86.047 12.2051C85.3786 14.6963 84.1058 19.473 83.7388 20.868L83.3929 22.1824H81.4714C79.6258 22.1824 79.5381 22.1714 79.2549 21.9052C78.696 21.3795 78.7414 21.0067 79.8762 16.8054C80.0005 16.3453 80.4885 14.5172 80.9607 12.7428C81.4329 10.9684 82.0571 8.64489 82.348 7.57953C82.6388 6.51417 82.8767 5.55981 82.8767 5.45861C82.8767 5.29837 82.5231 5.27471 80.1331 5.27471H77.3894L77.2588 5.78254ZM95.8564 5.48382C95.3347 7.28368 94.5792 10.3582 94.6084 10.5633L94.6463 10.8309H102.134C106.253 10.8309 109.653 10.8001 109.691 10.7625C109.744 10.7092 111.196 5.44761 111.196 5.30793C111.196 5.28965 107.758 5.27471 103.556 5.27471C96.3836 5.27471 95.9134 5.2875 95.8564 5.48382ZM93.6451 13.7883C93.5773 14.0019 93.3035 15.0101 93.0371 16.0287C92.2197 19.1526 91.7081 21.0711 91.4761 21.8836C91.3541 22.3108 91.1481 23.0636 91.0183 23.5565C90.8885 24.0494 90.5883 25.1745 90.3512 26.0567C90.0136 27.3126 89.9532 27.6818 90.0727 27.7576C90.2698 27.8827 104.874 27.8848 105.071 27.7599C105.153 27.7078 105.296 27.3995 105.389 27.0746C105.702 25.9818 106.655 22.403 106.655 22.3222C106.655 22.2781 104.504 22.2421 101.875 22.2421C97.2678 22.2421 97.0959 22.234 97.0959 22.0162C97.0959 21.7627 97.6107 19.7265 97.8023 19.223L97.9263 18.8964H102.702C105.328 18.8964 107.505 18.8508 107.54 18.7951C107.65 18.6162 108.925 13.8591 108.925 13.6253C108.925 13.4069 108.693 13.3999 101.347 13.3999H93.7687L93.6451 13.7883ZM17.3165 22.335C17.1755 22.4246 15.8435 27.1047 15.8435 27.5104C15.8435 27.6614 15.9621 27.7493 16.2319 27.7986C16.7825 27.8991 26.7985 27.8167 26.9042 27.7108C27.042 27.5729 28.3909 22.4601 28.3199 22.3451C28.2423 22.2194 17.5136 22.2095 17.3165 22.335Z" fill="#FCFCFC"/>
<path fill-rule="evenodd" clip-rule="evenodd" d="M119.969 3.08658C118.212 4.82227 116.62 6.3914 116.432 6.57362C116.243 6.75572 116.116 6.9708 116.149 7.05157C116.182 7.13223 116.574 7.38423 117.02 7.61162C117.466 7.83888 119.179 8.73541 120.825 9.60386C122.472 10.4723 123.866 11.1382 123.922 11.0835C123.979 11.0282 123.962 10.1588 123.884 9.12291C123.807 8.09937 123.777 7.20727 123.818 7.14047C123.929 6.96172 125.856 7.00031 126.683 7.19783C127.858 7.47827 128.867 8.0652 129.868 9.05038C130.622 9.79193 130.872 10.1424 131.32 11.0817C131.618 11.706 131.934 12.5126 132.023 12.874C132.265 13.8653 132.226 16.4507 131.954 17.4146C131.529 18.92 131.454 18.7543 132.886 19.4665C133.782 19.912 134.188 20.0584 134.278 19.9682C134.478 19.7688 134.962 18.24 135.165 17.1674C135.408 15.889 135.407 13.3785 135.164 12.2005C134.203 7.54709 130.993 4.38195 126.51 3.66574C125.985 3.58186 125.212 3.55402 124.635 3.59835C124.061 3.64244 123.626 3.62691 123.585 3.56083C123.547 3.49869 123.468 2.68809 123.409 1.7593C123.351 0.830635 123.272 0.039256 123.234 0.000780678C123.195 -0.0376947 121.726 1.35089 119.969 3.08658Z" fill="#FF6363"/>
<path fill-rule="evenodd" clip-rule="evenodd" d="M128.775 27.9134C130.532 26.1777 132.124 24.6086 132.312 24.4264C132.501 24.2443 132.628 24.0292 132.595 23.9484C132.563 23.8678 132.171 23.6158 131.724 23.3884C131.278 23.1611 129.566 22.2646 127.919 21.3961C126.272 20.5277 124.878 19.8618 124.822 19.9165C124.765 19.9718 124.782 20.8412 124.86 21.8771C124.937 22.9006 124.967 23.7927 124.926 23.8595C124.815 24.0383 122.888 23.9997 122.061 23.8022C120.886 23.5217 119.877 22.9348 118.876 21.9496C118.122 21.2081 117.872 20.8576 117.424 19.9183C117.126 19.294 116.81 18.4874 116.721 18.126C116.479 17.1347 116.518 14.5493 116.79 13.5854C117.215 12.08 117.29 12.2457 115.858 11.5335C114.962 11.088 114.556 10.9416 114.466 11.0318C114.266 11.2312 113.782 12.76 113.579 13.8326C113.336 15.111 113.337 17.6215 113.58 18.7995C114.542 23.4529 117.751 26.618 122.234 27.3343C122.759 27.4181 123.533 27.446 124.109 27.4016C124.683 27.3576 125.118 27.3731 125.159 27.4392C125.198 27.5013 125.277 28.3119 125.335 29.2407C125.393 30.1694 125.472 30.9607 125.51 30.9992C125.549 31.0377 127.018 29.6491 128.775 27.9134Z" fill="#FFBD69"/>
</svg>
