<svg width="232" height="54" viewBox="0 0 232 54" fill="none" xmlns="http://www.w3.org/2000/svg">
<path fill-rule="evenodd" clip-rule="evenodd" d="M11.5238 9.51862C11.4732 9.60321 11.1836 10.64 10.8803 11.8228C10.1325 14.7381 9.9545 18.5817 10.4534 21.0438C11.217 24.8122 12.5081 27.2552 16.4043 32.3043C17.8387 34.163 19.0979 35.908 19.2025 36.1823C19.3293 36.5141 19.3117 36.8768 19.1499 37.2672C18.671 38.4233 18.476 38.4488 10.0792 38.4488C2.94696 38.4488 2.39437 38.4742 2.29053 38.8072C2.22888 39.0044 1.90875 40.1794 1.579 41.4186C1.24925 42.6577 0.73332 44.5785 0.432447 45.6869C0.131778 46.7956 -0.0560362 47.7607 0.0150346 47.8317C0.237259 48.054 16.7394 47.86 17.7358 47.6235C18.2428 47.503 19.334 47.0969 20.1609 46.7206C25.6923 44.2036 29.4357 38.7683 29.1655 33.6463C29.0416 31.2974 28.4976 30.2744 24.9298 25.6806C23.247 23.514 21.589 21.1878 21.2453 20.5113C19.8813 17.8272 19.6398 15.0013 20.4855 11.618C20.753 10.5478 20.9295 9.60321 20.8779 9.51862C20.8261 9.43403 18.721 9.36501 16.1997 9.36501C13.6785 9.36501 11.5742 9.43403 11.5238 9.51862ZM32.8885 10.2355C32.7652 10.7141 32.3068 12.4424 31.8699 14.0758C31.4333 15.7092 30.837 17.9419 30.5454 19.037C29.4019 23.3301 29.4722 25.9634 30.7979 28.4904C32.8836 32.4663 36.7519 34.4624 41.5925 34.061C45.5573 33.7321 50.1269 31.339 53.3315 27.9133C56.1 24.9539 56.9544 23.1056 58.9891 15.676C59.8434 12.5571 60.5422 9.86107 60.5422 9.68513C60.5422 9.40413 59.9669 9.36501 55.8394 9.36501H51.1365L50.9314 10.1331C50.8188 10.5556 50.3938 12.1454 49.9868 13.6661C49.5799 15.1869 48.9896 17.4028 48.675 18.5903C48.0003 21.1376 47.6733 21.8243 46.6465 22.8511C44.4896 25.008 41.3154 25.0981 40.0597 23.0383C39.3254 21.8341 39.5116 20.6561 41.5923 13.3407C42.1017 11.5498 42.5185 9.92273 42.5185 9.72487C42.5185 9.39205 42.165 9.36501 37.8157 9.36501H33.1127L32.8885 10.2355ZM62.6964 9.62103C62.6491 9.76194 62.2903 11.1213 61.8989 12.6421C60.9514 16.3244 59.1005 23.2824 58.0578 27.0815C57.5941 28.7712 56.9596 31.1215 56.6478 32.3043C56.3361 33.4871 55.7407 35.6991 55.3245 37.2199C54.9083 38.7406 54.3117 40.9526 53.9983 42.1354C53.6852 43.3182 53.2174 45.0471 52.9591 45.9774C52.7006 46.9074 52.5575 47.7369 52.6408 47.8207C52.8211 48.0015 60.8283 48.1504 61.4868 47.9852C62.0199 47.8514 62.1557 47.4745 63.4842 42.4426C63.9896 40.5276 65.0057 36.7027 65.7422 33.9428C66.4787 31.1829 67.3486 27.911 67.6755 26.6719C69.3419 20.3535 69.6378 19.3465 69.9063 19.078C70.1257 18.8586 70.7893 18.7877 72.5896 18.7914C75.4709 18.7974 76.4709 19.0016 77.081 19.7088C77.8222 20.5682 77.8294 20.5237 75.5922 28.8224C75.1822 30.3432 74.5378 32.7395 74.1603 34.1476C73.7831 35.5557 73.0666 38.2286 72.5685 40.0873C72.0704 41.946 71.4052 44.4132 71.0902 45.57C70.7754 46.7268 70.5849 47.7406 70.667 47.8229C70.9099 48.0667 79.317 48.1259 79.7633 47.8871C79.98 47.7711 80.2178 47.4203 80.2917 47.1075C80.5168 46.1541 82.2634 39.4812 82.7726 37.6295C85.8072 26.5914 87.1634 21.3152 87.3535 19.8106C87.9624 14.9905 85.2558 10.8632 80.7093 9.679C79.0939 9.25831 62.8357 9.20587 62.6964 9.62103ZM108.162 9.55446C102.75 10.4348 97.933 13.0736 93.4089 17.6363C90.0231 21.0509 88.0574 24.4724 86.747 29.2321C86.0562 31.7411 86.0484 35.8697 86.7305 37.9367C87.4586 40.1436 88.5318 42.0099 89.96 43.5525C91.4451 45.1566 92.6175 45.9692 94.6527 46.8054C96.6415 47.6226 98.2839 47.8989 101.116 47.893C103.909 47.887 105.414 47.6628 107.798 46.897L109.482 46.3558L110.275 47.2155L111.069 48.0751H116.22C120.524 48.0751 121.372 48.0274 121.372 47.7855C121.372 47.6261 119.271 44.2391 116.703 40.2585L112.034 33.0212L106.667 32.9665C103.716 32.9366 101.3 32.97 101.3 33.0408C101.3 33.1119 101.992 34.2609 102.837 35.5944C103.681 36.9282 104.373 38.1292 104.373 38.2636C104.373 38.4414 103.955 38.4762 102.839 38.3918C96.1192 37.8837 93.9524 30.3338 98.7402 24.1117C100.447 21.8935 103.357 19.9099 105.836 19.275C107.705 18.7959 111.079 18.9602 112.409 19.5947C116.173 21.3913 117.341 26.2194 115.128 30.8356L114.433 32.2877L115.919 34.6003C118.69 38.9129 118.91 39.2408 119.097 39.3565C119.359 39.5187 121.133 37.5275 122.29 35.7712C124.755 32.0294 126.258 27.3457 126.281 23.335C126.29 21.9417 125.767 19.4192 125.163 17.9308C123.664 14.2435 120.434 11.2897 116.559 10.0644C115.217 9.64007 114.403 9.53214 112.053 9.46701C110.476 9.42338 108.725 9.4627 108.162 9.55446ZM132.429 10.2355C132.306 10.7141 132.067 11.5981 131.898 12.1997C131.729 12.8014 130.956 15.7047 130.179 18.6513C129.403 21.5982 128.441 25.2075 128.042 26.6719C125.538 35.8667 125.214 37.3741 125.298 39.4573C125.364 41.095 125.473 41.6287 125.94 42.5827C127.148 45.0524 128.866 46.6213 131.266 47.4471C132.31 47.8059 133.248 47.8576 140.876 47.9755C147.739 48.0818 149.396 48.0552 149.682 47.8346C150.004 47.586 150.486 45.9065 153.432 34.7621C154.529 30.6146 159.678 11.4504 159.87 10.8002C160.324 9.27019 160.62 9.36501 155.385 9.36501C151.088 9.36501 150.68 9.39553 150.585 9.72344C150.527 9.92047 149.963 12.0174 149.33 14.383C148.697 16.7486 147.871 19.8362 147.493 21.2443C146.347 25.5145 144.165 33.7022 143.536 36.0934L142.943 38.3463H139.65C136.486 38.3463 136.336 38.3275 135.85 37.8712C134.893 36.9702 134.97 36.3312 136.915 29.1297C137.128 28.3411 137.965 25.2075 138.774 22.166C139.584 19.1244 140.654 15.1418 141.152 13.3157C141.651 11.4896 142.059 9.8537 142.059 9.68022C142.059 9.40556 141.453 9.36501 137.356 9.36501H132.653L132.429 10.2355ZM164.307 9.72344C163.413 12.8086 162.118 18.0787 162.168 18.4301L162.233 18.8889H175.068C182.127 18.8889 187.956 18.8361 188.021 18.7716C188.112 18.6802 190.6 9.66138 190.6 9.42195C190.6 9.39062 184.707 9.36501 177.505 9.36501C165.211 9.36501 164.405 9.38693 164.307 9.72344ZM160.517 23.9581C160.4 24.3243 159.931 26.0523 159.474 27.7984C158.073 33.1531 157.196 36.4416 156.799 37.8343C156.59 38.5665 156.236 39.8569 156.014 40.7017C155.792 41.5466 155.277 43.4751 154.871 44.9873C154.292 47.1401 154.188 47.773 154.393 47.9028C154.731 48.1173 179.765 48.1209 180.102 47.9067C180.243 47.8174 180.488 47.289 180.647 46.7321C181.183 44.8589 182.817 38.7244 182.817 38.586C182.817 38.5104 179.13 38.4488 174.624 38.4488C166.726 38.4488 166.432 38.4348 166.432 38.0615C166.432 37.627 167.314 34.1368 167.642 33.2737L167.855 32.7139H176.041C180.543 32.7139 184.275 32.6357 184.334 32.5402C184.523 32.2336 186.708 24.0795 186.708 23.6787C186.708 23.3043 186.311 23.2924 173.719 23.2924H160.729L160.517 23.9581ZM29.6821 38.6079C29.4404 38.7615 27.1573 46.7837 27.1573 47.479C27.1573 47.7379 27.3605 47.8887 27.823 47.9731C28.7668 48.1453 45.9352 48.0042 46.1165 47.8225C46.3526 47.5862 48.6648 38.8223 48.5431 38.6253C48.41 38.4099 30.02 38.3928 29.6821 38.6079Z" fill="#543864"/>
<path fill-rule="evenodd" clip-rule="evenodd" d="M205.641 5.61393C202.629 8.58908 199.901 11.2787 199.578 11.591C199.254 11.9032 199.036 12.2719 199.093 12.4103C199.149 12.5486 199.821 12.9805 200.586 13.3703C201.351 13.7598 204.286 15.2966 207.109 16.7852C209.932 18.2738 212.32 19.4152 212.417 19.3214C212.515 19.2266 212.486 17.7363 212.352 15.9608C212.219 14.2063 212.168 12.6772 212.239 12.5627C212.428 12.2563 215.732 12.3224 217.15 12.661C219.163 13.1417 220.893 14.1478 222.609 15.8365C223.901 17.1075 224.331 17.7083 225.098 19.3183C225.609 20.3885 226.151 21.771 226.303 22.3905C226.718 24.0897 226.651 28.5213 226.185 30.1735C225.456 32.754 225.327 32.4699 227.782 33.6906C229.317 34.4544 230.014 34.7053 230.168 34.5506C230.51 34.2088 231.34 31.5884 231.689 29.7498C232.105 27.5584 232.103 23.2553 231.686 21.236C230.039 13.2597 224.538 7.83433 216.853 6.60667C215.952 6.46289 214.627 6.41517 213.639 6.49116C212.655 6.56674 211.909 6.54011 211.839 6.42684C211.773 6.32034 211.638 4.93088 211.538 3.33885C211.439 1.74703 211.303 0.390531 211.237 0.32458C211.171 0.25863 208.653 2.63879 205.641 5.61393Z" fill="#FF6363"/>
<path fill-rule="evenodd" clip-rule="evenodd" d="M220.733 48.1695C223.745 45.1944 226.473 42.5047 226.796 42.1924C227.12 41.8803 227.338 41.5116 227.281 41.3731C227.225 41.2349 226.553 40.8029 225.788 40.4132C225.023 40.0236 222.088 38.4869 219.265 36.9983C216.442 35.5097 214.054 34.3682 213.957 34.4621C213.859 34.5569 213.888 36.0471 214.022 37.8227C214.155 39.5771 214.206 41.1063 214.135 41.2208C213.946 41.5272 210.642 41.461 209.224 41.1224C207.211 40.6417 205.481 39.6357 203.765 37.947C202.473 36.6759 202.043 36.0752 201.276 34.4651C200.765 33.395 200.223 32.0125 200.071 31.3929C199.656 29.6938 199.723 25.2622 200.189 23.6099C200.918 21.0295 201.047 21.3135 198.593 20.0928C197.057 19.3291 196.36 19.0782 196.206 19.2328C195.864 19.5747 195.034 22.1951 194.685 24.0337C194.269 26.225 194.271 30.5282 194.688 32.5474C196.335 40.5238 201.836 45.9491 209.521 47.1768C210.422 47.3206 211.747 47.3683 212.735 47.2923C213.719 47.2167 214.465 47.2433 214.535 47.3566C214.601 47.4631 214.736 48.8526 214.836 50.4446C214.936 52.0364 215.071 53.3929 215.137 53.4589C215.203 53.5248 217.721 51.1447 220.733 48.1695Z" fill="#FFBD69"/>
</svg>
