<svg width="24" height="25" viewBox="0 0 24 25" fill="none" xmlns="http://www.w3.org/2000/svg">
<path d="M3.75 0.658203C2.75544 0.658203 1.80161 1.05329 1.09835 1.75655C0.395088 2.45981 0 3.41364 0 4.4082V17.9082C0 18.9028 0.395088 19.8566 1.09835 20.5599C1.80161 21.2631 2.75544 21.6582 3.75 21.6582H10.74C10.5794 21.1435 10.4985 20.6073 10.5 20.0682V19.5882C10.5 18.5607 10.935 17.6247 11.5305 16.9557C12.1215 16.2897 13.0605 15.6837 14.25 15.6582H14.325C13.3822 14.7372 12.8202 13.4954 12.7508 12.1792C12.6813 10.863 13.1095 9.56891 13.9502 8.55385C14.7909 7.53879 15.9826 6.87707 17.2886 6.70012C18.5947 6.52317 19.9195 6.84393 21 7.5987V4.4082C21 3.41364 20.6049 2.45981 19.9017 1.75655C19.1984 1.05329 18.2446 0.658203 17.25 0.658203H3.75ZM14.325 17.1582H21.675C22.3725 17.1582 22.9575 17.5107 23.349 17.9517C23.532 18.1572 23.688 18.3987 23.799 18.6582H18V20.1582H24C23.985 20.6787 23.8635 21.1857 23.6415 21.6582H18V23.1582H22.482C21.42 24.0702 19.8615 24.6582 18 24.6582C14.4495 24.6582 12 22.5192 12 20.0682V19.5882C12 18.9807 12.2625 18.3882 12.651 17.9517C13.0425 17.5107 13.6275 17.1582 14.325 17.1582ZM14.25 11.9082C14.25 12.6953 14.4976 13.4624 14.9578 14.1009C15.418 14.7394 16.0675 15.2169 16.8141 15.4658C17.5608 15.7147 18.3669 15.7223 19.1181 15.4876C19.8694 15.253 20.5278 14.7879 21 14.1582H18V12.6582H21.675C21.7755 12.1633 21.7755 11.6532 21.675 11.1582H18V9.6582H21C20.5278 9.02856 19.8694 8.56345 19.1181 8.32878C18.3669 8.0941 17.5608 8.10175 16.8141 8.35064C16.0675 8.59953 15.418 9.07704 14.9578 9.71554C14.4976 10.354 14.25 11.1211 14.25 11.9082Z" fill="white"/>
</svg>
