<svg width="32" height="32" viewBox="0 0 32 32" fill="none" xmlns="http://www.w3.org/2000/svg">
<circle cx="16" cy="16" r="16" fill="#543864" fill-opacity="0.7"/>
<path d="M20.6308 17.131C20.5743 17.189 20.3609 17.437 20.1622 17.641C18.9971 18.924 15.9576 21.024 14.3668 21.665C14.1252 21.768 13.5144 21.986 13.188 22C12.8753 22 12.5772 21.928 12.2927 21.782C11.9381 21.578 11.6537 21.257 11.4978 20.878C11.3975 20.615 11.2416 19.828 11.2416 19.814C11.0857 18.953 11 17.554 11 16.008C11 14.535 11.0857 13.193 11.2133 12.319C11.228 12.305 11.3838 11.327 11.5543 10.992C11.867 10.38 12.4778 10 13.1315 10H13.188C13.6137 10.015 14.509 10.395 14.509 10.409C16.0141 11.051 18.9834 13.048 20.1768 14.375C20.1768 14.375 20.5129 14.716 20.659 14.929C20.887 15.235 21 15.614 21 15.993C21 16.416 20.8724 16.81 20.6308 17.131Z" fill="#FFBD69" fill-opacity="0.8"/>
</svg>
