<svg width="32" height="32" viewBox="0 0 32 32" fill="none" xmlns="http://www.w3.org/2000/svg">
<circle cx="16" cy="16" r="16" transform="rotate(90 16 16)" fill="#543864"/>
<path d="M14.869 20.6308C14.811 20.5743 14.563 20.3609 14.359 20.1622C13.076 18.9971 10.976 15.9576 10.335 14.3668C10.232 14.1252 10.014 13.5144 10 13.188C10 12.8753 10.072 12.5772 10.218 12.2927C10.422 11.9381 10.743 11.6537 11.122 11.4978C11.385 11.3975 12.172 11.2416 12.186 11.2416C13.047 11.0857 14.446 11 15.992 11C17.465 11 18.807 11.0857 19.681 11.2133C19.695 11.228 20.673 11.3838 21.008 11.5543C21.62 11.867 22 12.4778 22 13.1315V13.188C21.985 13.6137 21.605 14.509 21.591 14.509C20.949 16.0141 18.952 18.9834 17.625 20.1768C17.625 20.1768 17.284 20.5129 17.071 20.659C16.765 20.887 16.386 21 16.007 21C15.584 21 15.19 20.8724 14.869 20.6308Z" fill="#FFBD69"/>
</svg>
