<svg width="24" height="24" viewBox="0 0 24 24" fill="none" xmlns="http://www.w3.org/2000/svg">
<rect width="24" height="24" rx="2" fill="#422454"/>
<path d="M9.22153 12.754C9.25543 12.7927 9.38344 12.958 9.50268 13.094C10.2018 13.9493 12.0254 15.3493 12.9799 15.7767C13.1249 15.8453 13.4914 15.9907 13.6872 16C13.8748 16 14.0537 15.952 14.2244 15.8547C14.4371 15.7187 14.6078 15.5047 14.7013 15.252C14.7615 15.0767 14.855 14.552 14.855 14.5427C14.9486 13.9687 15 13.036 15 12.0053C15 11.0233 14.9486 10.1287 14.872 9.546C14.8632 9.53667 14.7697 8.88467 14.6674 8.66133C14.4798 8.25333 14.1133 8 13.7211 8H13.6872C13.4318 8.01 12.8946 8.26333 12.8946 8.27267C11.9915 8.70067 10.2099 10.032 9.49391 10.9167C9.49391 10.9167 9.29225 11.144 9.20458 11.286C9.0678 11.49 9 11.7427 9 11.9953C9 12.2773 9.07657 12.54 9.22153 12.754Z" fill="#F5F5F5"/>
</svg>
